<?xml version="1.0" standalone="no"?>
<!DOCTYPE svg PUBLIC "-//W3C//DTD SVG 20010904//EN"
 "http://www.w3.org/TR/2001/REC-SVG-20010904/DTD/svg10.dtd">
<svg version="1.0" xmlns="http://www.w3.org/2000/svg"
 width="417.000000pt" height="626.000000pt" viewBox="0 0 417.000000 626.000000"
 preserveAspectRatio="xMidYMid meet">

<g transform="translate(0.000000,626.000000) scale(0.100000,-0.100000)"
fill="#000000" stroke="none">
<path d="M1045 6143 c-135 -136 -288 -321 -280 -341 2 -7 1 -10 -4 -7 -13 7
-24 -12 -15 -27 5 -7 15 -2 32 18 35 43 24 20 -41 -81 -32 -49 -73 -115 -91
-147 l-33 -56 27 9 c20 7 49 44 105 130 133 206 253 358 387 492 l128 127 -49
0 -49 0 -117 -117z"/>
<path d="M1234 6181 c-134 -117 -293 -305 -286 -338 2 -8 -1 -12 -7 -9 -5 4
-12 2 -15 -3 -4 -5 2 -8 11 -6 10 1 17 10 17 19 -1 9 2 16 7 16 5 0 9 -5 9
-10 0 -6 14 -17 31 -24 29 -12 38 -10 172 58 157 79 329 140 677 240 201 58
398 121 409 132 2 2 -207 4 -465 4 l-470 0 -90 -79z"/>
<path d="M726 5761 c-4 -6 -5 -11 -3 -11 3 0 -11 -17 -29 -37 -35 -38 -42 -57
-23 -69 8 -4 9 1 4 16 -6 19 -4 22 9 17 10 -4 15 -3 11 3 -3 6 -2 10 4 10 17
0 54 61 43 72 -6 6 -12 6 -16 -1z"/>
<path d="M610 5590 c-6 -11 -8 -20 -6 -20 3 0 10 9 16 20 6 11 8 20 6 20 -3 0
-10 -9 -16 -20z"/>
<path d="M618 5463 c7 -3 16 -2 19 1 4 3 -2 6 -13 5 -11 0 -14 -3 -6 -6z"/>
<path d="M3535 730 c-4 -6 -10 -8 -15 -5 -5 3 -14 -5 -21 -17 -28 -57 -206
-313 -282 -408 -47 -58 -130 -149 -185 -202 l-101 -98 51 0 51 0 111 113 c129
129 239 264 230 279 -4 6 -2 8 4 4 14 -8 55 50 46 65 -4 8 -3 9 4 5 12 -7 68
71 64 91 -1 6 7 18 18 26 16 11 18 17 9 23 -7 4 -14 3 -16 -3 -5 -15 -122
-173 -128 -173 -3 0 21 39 53 88 90 135 103 158 96 178 -4 13 -3 15 3 6 7 -9
12 -6 21 13 11 24 0 36 -13 15z"/>
<path d="M3545 670 c-3 -5 -1 -10 4 -10 6 0 11 5 11 10 0 6 -2 10 -4 10 -3 0
-8 -4 -11 -10z"/>
<path d="M3527 625 c3 -8 9 -12 14 -9 12 7 11 11 -5 17 -10 4 -13 1 -9 -8z"/>
<path d="M3105 413 c-140 -86 -349 -167 -705 -269 -239 -69 -440 -133 -440
-140 0 -2 206 -4 459 -4 l458 0 105 99 c97 92 171 176 244 276 16 22 22 34 13
28 -9 -7 -20 -9 -24 -5 -5 4 -4 0 0 -8 5 -8 -7 0 -25 18 -19 17 -36 32 -39 31
-3 0 -24 -12 -46 -26z"/>
</g>
</svg>
